<?xml version="1.0" standalone="no"?>
<!DOCTYPE svg PUBLIC "-//W3C//DTD SVG 20010904//EN"
 "http://www.w3.org/TR/2001/REC-SVG-20010904/DTD/svg10.dtd">
<svg version="1.0" xmlns="http://www.w3.org/2000/svg"
 width="1280.000000pt" height="1280.000000pt" viewBox="0 0 1280.000000 1280.000000"
 preserveAspectRatio="xMidYMid meet">
<metadata>
Created by potrace 1.14, written by Peter Selinger 2001-2017
</metadata>
<g transform="translate(0.000000,1280.000000) scale(0.100000,-0.100000)"
fill="#000000" stroke="none">
<path d="M0 6400 l0 -6400 6400 0 6400 0 0 6400 0 6400 -6400 0 -6400 0 0
-6400z m7325 2091 c6 -6 275 -11 655 -14 671 -5 705 -7 925 -52 107 -22 140
-30 205 -50 30 -9 69 -20 85 -25 32 -9 156 -54 190 -69 264 -116 467 -251 645
-430 116 -116 234 -272 300 -396 24 -44 46 -84 50 -90 16 -21 92 -210 111
-273 38 -129 46 -164 81 -362 18 -102 18 -525 -1 -645 -32 -214 -92 -414 -177
-593 -152 -321 -410 -608 -716 -797 -158 -98 -375 -199 -518 -240 -202 -59
-276 -75 -530 -116 -50 -8 -281 -13 -685 -16 -354 -3 -614 -8 -619 -14 -16
-15 -1008 -11 -1026 4 -8 7 -22 26 -31 42 -29 52 -138 243 -214 373 -5 9 -57
98 -114 197 -57 99 -117 201 -132 228 -16 26 -29 49 -29 51 0 3 -15 29 -185
321 -129 222 -200 345 -226 392 -13 23 -64 111 -113 195 -49 84 -108 186 -130
225 -23 40 -44 73 -47 73 -4 0 -44 -64 -90 -142 -223 -385 -309 -535 -369
-642 -19 -35 -40 -70 -45 -77 -6 -8 -21 -34 -34 -59 -13 -25 -53 -94 -89 -155
-35 -60 -81 -139 -102 -175 -21 -36 -65 -111 -99 -168 -33 -57 -61 -105 -61
-107 0 -2 -14 -28 -31 -57 -18 -29 -40 -67 -49 -84 -10 -16 -53 -91 -96 -165
-43 -74 -93 -162 -113 -197 l-35 -62 -515 2 -516 3 0 2075 0 2075 515 0 515 0
3 -1033 c1 -754 5 -1033 13 -1030 6 2 26 31 43 63 18 33 39 71 47 85 16 26
151 258 186 320 11 19 64 112 118 205 158 275 525 914 570 995 24 41 66 116
95 165 29 50 70 119 90 155 20 35 41 65 47 67 5 2 34 -41 65 -94 31 -54 86
-150 123 -213 37 -63 81 -140 97 -170 17 -30 42 -72 55 -92 12 -21 23 -39 23
-42 0 -4 139 -247 150 -261 12 -15 49 -82 88 -160 20 -38 43 -81 53 -95 17
-26 132 -223 199 -340 20 -36 70 -121 110 -190 40 -69 78 -134 84 -145 35 -64
151 -264 152 -262 1 1 4 467 6 1036 4 996 5 1034 23 1047 15 11 111 14 515 14
294 0 500 -4 505 -9z"/>
<path d="M7348 7643 c-2 -5 -3 -566 -3 -1248 l0 -1240 530 -3 c577 -4 628 0
805 50 366 103 645 366 763 718 59 177 77 295 77 501 0 221 -24 351 -96 531
-132 330 -403 563 -762 658 -134 35 -232 40 -773 40 -296 0 -539 -3 -541 -7z"/>
</g>
</svg>
